<svg width="512" height="512" viewBox="0 0 512 512" xmlns="http://www.w3.org/2000/svg">
  <defs>
    <linearGradient id="bg-grad" x1="0%" y1="0%" x2="100%" y2="100%">
      <stop offset="0%" style="stop-color:#1e1e2e;stop-opacity:1" />
      <stop offset="100%" style="stop-color:#11111b;stop-opacity:1" />
    </linearGradient>
  </defs>
  <circle cx="256" cy="256" r="240" fill="url(#bg-grad)" stroke="#cba6f7" stroke-width="16" />
  
  <g transform="translate(256, 256) scale(6.5) translate(-50, -50)" fill="#f9e2af">
    <!-- Hebrew Aleph (א) - Biblical Square Script -->
    <path d="M25,20 L35,20 Q40,20 45,30 L75,80 L65,80 Q60,80 55,70 L25,20 Z M65,20 L75,20 L75,45 Q75,50 70,50 L55,50 L65,20 Z M25,50 L45,50 Q50,50 50,55 L50,80 L25,80 L25,50 Z" />
  </g>
</svg>