<svg width="512" height="512" viewBox="0 0 512 512" xmlns="http://www.w3.org/2000/svg">
  <defs>
    <linearGradient id="bg-grad" x1="0%" y1="0%" x2="100%" y2="100%">
      <stop offset="0%" style="stop-color:#1e1e2e;stop-opacity:1" />
      <stop offset="100%" style="stop-color:#11111b;stop-opacity:1" />
    </linearGradient>
  </defs>
  <circle cx="256" cy="256" r="240" fill="url(#bg-grad)" stroke="#cba6f7" stroke-width="16" />
  
  <g transform="translate(256, 256) scale(5.0) translate(-50, -50)" fill="#f9e2af">
    <!-- Hebrew Aleph (א) - Thinner, more delicate version -->
    <path d="M32,25 L38,25 Q41,25 43,30 L70,75 L64,75 Q61,75 59,70 L32,25 Z M65,25 L72,25 L72,45 Q72,48 69,48 L58,48 L65,25 Z M28,52 L43,52 Q46,52 46,55 L46,75 L34,75 Q28,75 28,69 L28,52 Z" />
  </g>
</svg>